# xmcd
#
# Track frame offsets:
#	150
#	13336
#	28738
#	47019
#	65930
#	84923
#	102702
#	118414
#	132108
#	142281
#	158278
#	173397
#	186092
#	203187
#	219192
#	249715
#	265136
#	282833
#	300513
#	316962
#	338657
#
# Disc length: 4804 seconds
#
# Revision: 1
# Processed by: cddbd v1.5.2PL0 Copyright (c) Steve Scherf et al.
# Submitted via: audiograbber 1.83.01
#
DISCID=3212c215
DTITLE=Various Artist - Winter/Spring 2002 Sampler
DYEAR=2002
DGENRE=Blues/Roots/Folk
TTITLE0=Collard Greens and Gravy - You Put Your Spell on Me
TTITLE1=The Giants - Lone Ride
TTITLE2=The Detonators - All Of Me
TTITLE3=Matt Corcoran - Send Me the Pillow
TTITLE4=Chris Wilson - Gogo Gaugin
TTITLE5=Ash Grunwald - Just Be Yourself
TTITLE6=Cyndi Boste - Living In the Neighbourhood
TTITLE7=Jan Preston - Bad Luck Woman
TTITLE8=Nick Charles - East Coast Blues
TTITLE9=Andy Cowan - Higher Love
TTITLE10=Brian Fraser - Sitting On the Corner
TTITLE11=Fiona Boyes - She Could Play That Thing
TTITLE12=Tiffany Eckhardt - Down To the Sea
TTITLE13=Maria Forde - I'll Be Seeing You
TTITLE14=Penelope Swales - Already Begun
TTITLE15=The Ten Cent Shooters - Easy Rider
TTITLE16=Inka Marka - Ripusani
TTITLE17=Jigzag - 30 Seconds of Happiness
TTITLE18=Ahasa - World Citizen
TTITLE19=Rose Bygrave - Walking Home
TTITLE20=Dave Steel - Restless
EXTD=
EXTT0=
EXTT1=
EXTT2=
EXTT3=
EXTT4=
EXTT5=
EXTT6=
EXTT7=
EXTT8=
EXTT9=
EXTT10=
EXTT11=
EXTT12=
EXTT13=
EXTT14=
EXTT15=
EXTT16=
EXTT17=
EXTT18=
EXTT19=
EXTT20=
PLAYORDER=
